<svg width="764" height="179" viewBox="0 0 764 179" fill="none" xmlns="http://www.w3.org/2000/svg">
<path d="M113.628 176.202H25.7557C11.5312 176.202 0 164.671 0 150.446V50.452C0 36.2274 11.5312 24.696 25.7557 24.696H151.504L113.628 176.202Z" fill="#006DA8"/>
<path d="M114.295 0H202.167C216.391 0 227.923 11.5314 227.923 25.7561V125.75C227.923 139.975 216.391 151.506 202.167 151.506H76.4192L114.295 0Z" fill="#9F73FF"/>
<path d="M114.295 0H202.167C216.391 0 227.923 11.5314 227.923 25.7561V125.75C227.923 139.975 216.391 151.506 202.167 151.506H76.4192L114.295 0Z" fill="url(#paint0_linear_130_575)"/>
<path d="M279.575 25.8742H298.114L325.49 115.332L354.375 25.8742H370.758L398.134 115.332L426.804 25.8742H444.696L408.05 135.811H388.65L362.136 54.1128L334.544 135.811L315.143 136.026L279.575 25.8742Z" fill="white"/>
<path d="M559.715 25.8742V135.811H544.41L542.039 118.135C532.841 130.781 520.267 137.104 504.315 137.104C494.112 137.104 484.987 134.877 476.939 130.422C469.035 125.967 462.784 119.5 458.185 111.021C453.73 102.542 451.503 92.4828 451.503 80.8424C451.503 69.7769 453.73 60.0048 458.185 51.526C462.784 43.0473 469.107 36.4367 477.155 31.6944C485.202 26.952 494.256 24.5808 504.315 24.5808C513.082 24.5808 520.626 26.2335 526.949 29.5387C533.273 32.844 538.302 37.3708 542.039 43.1191L544.41 25.8742H559.715ZM506.04 121.368C513.082 121.368 519.333 119.715 524.794 116.41C530.398 112.961 534.71 108.219 537.727 102.183C540.745 96.0036 542.254 89.0338 542.254 81.2735C542.254 73.3696 540.745 66.3279 537.727 60.1485C534.71 53.8254 530.398 48.9393 524.794 45.4903C519.333 42.0413 513.082 40.3168 506.04 40.3168C495.118 40.3168 486.28 44.1251 479.526 51.7416C472.915 59.2144 469.61 68.9147 469.61 80.8424C469.61 92.7702 472.915 102.542 479.526 110.159C486.28 117.632 495.118 121.368 506.04 121.368Z" fill="white"/>
<path d="M639.624 25.8742V43.1191H630.786C620.295 43.1191 612.751 46.64 608.152 53.6816C603.697 60.7233 601.47 69.4177 601.47 79.7646V135.811H583.794V25.8742H599.099L601.47 42.4724C604.631 37.4427 608.727 33.4188 613.757 30.401C618.787 27.3831 625.756 25.8742 634.666 25.8742H639.624Z" fill="white"/>
<path d="M711.187 24.5808C721.391 24.5808 730.444 26.8083 738.348 31.2632C746.396 35.7182 752.647 42.185 757.102 50.6638C761.701 59.1425 764 69.2021 764 80.8424C764 91.9079 761.701 101.68 757.102 110.159C752.647 118.638 746.396 125.248 738.348 129.99C730.3 134.733 721.247 137.104 711.187 137.104C702.277 137.104 694.661 135.523 688.338 132.362C682.015 129.056 677.057 124.601 673.464 118.997V178.923H655.788V25.8742H671.093L673.464 43.5502C682.661 30.904 695.236 24.5808 711.187 24.5808ZM709.463 121.368C720.385 121.368 729.151 117.632 735.761 110.159C742.516 102.542 745.893 92.7702 745.893 80.8424C745.893 68.9147 742.516 59.2144 735.761 51.7416C729.151 44.1251 720.385 40.3168 709.463 40.3168C702.421 40.3168 696.098 42.0413 690.493 45.4903C685.032 48.7956 680.793 53.5379 677.775 59.7174C674.757 65.7531 673.248 72.6511 673.248 80.4113C673.248 88.3152 674.757 95.4288 677.775 101.752C680.793 107.931 685.032 112.746 690.493 116.195C696.098 119.644 702.421 121.368 709.463 121.368Z" fill="white"/>
<defs>
<linearGradient id="paint0_linear_130_575" x1="128.135" y1="124.008" x2="252.623" y2="22.612" gradientUnits="userSpaceOnUse">
<stop stop-color="#01A4FF"/>
<stop offset="0.791667" stop-color="#01FFC2"/>
</linearGradient>
</defs>
</svg>
